<?xml version="1.0" encoding="UTF-8" standalone="no"?>
<svg
    xmlns:dc="http://purl.org/dc/elements/1.1/"
    xmlns:cc="http://creativecommons.org/ns#"
    xmlns:rdf="http://www.w3.org/1999/02/22-rdf-syntax-ns#"
    xmlns:svg="http://www.w3.org/2000/svg"
    xmlns="http://www.w3.org/2000/svg"
    xmlns:sodipodi="http://sodipodi.sourceforge.net/DTD/sodipodi-0.dtd"
    xmlns:inkscape="http://www.inkscape.org/namespaces/inkscape"
    width="16"
    height="16"
    version="1"
    id="svg6"
    sodipodi:docname="down-16.svg"
    inkscape:version="0.92.4 5da689c313, 2019-01-14">
    <metadata id="metadata12">
        <rdf:RDF>
            <cc:Work rdf:about="">
                <dc:format>image/svg+xml</dc:format>
                <dc:type rdf:resource="http://purl.org/dc/dcmitype/StillImage"/>
                <dc:title/>
                <cc:license rdf:resource="https://www.gnu.org/licenses/gpl-3.0.en.html"/>
            </cc:Work>
        </rdf:RDF>
    </metadata>
    <defs id="defs10"/>
    <sodipodi:namedview
        pagecolor="#ffffff"
        bordercolor="#666666"
        borderopacity="1"
        objecttolerance="10"
        gridtolerance="10"
        guidetolerance="10"
        inkscape:pageopacity="0"
        inkscape:pageshadow="2"
        inkscape:window-width="1256"
        inkscape:window-height="2075"
        id="namedview8"
        showgrid="false"
        inkscape:zoom="29.5"
        inkscape:cx="9.0969315"
        inkscape:cy="2.5590481"
        inkscape:window-x="2566"
        inkscape:window-y="67"
        inkscape:window-maximized="0"
        inkscape:current-layer="svg6"/>
    <path
        style="opacity:0.2;fill-rule:evenodd;stroke-width:0.31426939"
        d="m 0.6138333,3.679025 c -0.065395,-2.16e-4 -1.3074198,-4.707e-4 -0.061451,1.389691 l 6.6253101,7.190305 c 0.2460339,0.26703 0.4998394,0.402561 0.8223018,0.407642 0.3224626,-0.0051 0.5762686,-0.140604 0.8223016,-0.407642 L 15.447605,5.068716 c 1.24597,-1.3901617 0.004,-1.389907 -0.06145,-1.389691 H 7.9999942 Z"
        id="path2"
        inkscape:connector-curvature="0"/>
    <path
        style="fill:#4877b1;fill-opacity:1;fill-rule:evenodd;stroke-width:0.31426939"
        d="m 0.6138333,3.3333466 c -0.065395,-2.16e-4 -1.3074198,-4.693e-4 -0.061451,1.3896896 L 7.177692,11.913341 c 0.2460339,0.267033 0.4998394,0.402564 0.8223018,0.407644 0.3224626,-0.0051 0.5762686,-0.140604 0.8223016,-0.407644 L 15.447605,4.7230362 c 1.24597,-1.3901589 0.004,-1.3899056 -0.06145,-1.3896896 H 7.9999942 Z"
        id="path6"
        inkscape:connector-curvature="0"/>
    <path
        style="opacity:0.2;fill:#ffffff;fill-rule:evenodd;stroke-width:0.31426939"
        d="M 0.6138391,3.3333413 C 0.5643098,3.3331773 -0.1581026,3.3343866 0.0345984,3.9382795 0.157085,3.6797757 0.5765088,3.678897 0.6138391,3.6790197 h 7.3861551 7.3861548 c 0.03733,-1.227e-4 0.456755,7.56e-4 0.579241,0.2592598 0.1927,-0.6038929 -0.529713,-0.6051022 -0.579241,-0.6049382 H 7.9999942 Z"
        id="path10"
        inkscape:connector-curvature="0"/>
</svg>