<?xml version="1.0" encoding="UTF-8" standalone="no"?>
<svg
    xmlns:dc="http://purl.org/dc/elements/1.1/"
    xmlns:cc="http://creativecommons.org/ns#"
    xmlns:rdf="http://www.w3.org/1999/02/22-rdf-syntax-ns#"
    xmlns:svg="http://www.w3.org/2000/svg"
    xmlns="http://www.w3.org/2000/svg"
    xmlns:sodipodi="http://sodipodi.sourceforge.net/DTD/sodipodi-0.dtd"
    xmlns:inkscape="http://www.inkscape.org/namespaces/inkscape"
    width="16"
    height="16"
    version="1"
    id="svg6"
    sodipodi:docname="pc-16.svg"
    inkscape:version="0.92.4 5da689c313, 2019-01-14">
    <metadata id="metadata12">
        <rdf:RDF>
            <cc:Work rdf:about="">
                <dc:format>image/svg+xml</dc:format>
                <dc:type rdf:resource="http://purl.org/dc/dcmitype/StillImage"/>
                <dc:title/>
                <cc:license rdf:resource="https://www.gnu.org/licenses/gpl-3.0.en.html"/>
            </cc:Work>
        </rdf:RDF>
    </metadata>
    <defs id="defs10"/>
    <sodipodi:namedview
        pagecolor="#ffffff"
        bordercolor="#666666"
        borderopacity="1"
        objecttolerance="10"
        gridtolerance="10"
        guidetolerance="10"
        inkscape:pageopacity="0"
        inkscape:pageshadow="2"
        inkscape:window-width="1896"
        inkscape:window-height="2075"
        id="namedview8"
        showgrid="false"
        inkscape:zoom="32"
        inkscape:cx="10.024998"
        inkscape:cy="5.3175362"
        inkscape:window-x="1926"
        inkscape:window-y="67"
        inkscape:window-maximized="0"
        inkscape:current-layer="svg6"/>
    <path
        style="display:inline;opacity:0.6;fill-opacity:1;stroke-width:0.89999998"
        d="m 1.6002344,12.608693 c 0,0.287654 0.32112,0.692307 0.72,0.692307 h 7.5599999 v -4.5000001 -4.5 H 2.3202344 c -0.39888,0 -0.72,0.4046535 -0.72,0.6923079 z"
        id="path2-3"
        inkscape:connector-curvature="0"/>
    <path
        style="display:inline;fill:#eac046;fill-opacity:1;stroke-width:0.89999998"
        d="m 1.6002344,12.208474 c 0,0.287654 0.32112,0.692307 0.72,0.692307 h 7.56 v -4.4999999 -4.5 h -7.56 c -0.39888,0 -0.72,0.4046535 -0.72,0.6923079 z"
        id="path2-6"
        inkscape:connector-curvature="0"/>
    <path
        style="display:inline;opacity:0.2;fill:#ffffff;fill-opacity:1;stroke-width:0.89999998"
        d="m 2.3203125,3.9007811 c -0.39888,0 -0.7207031,0.4037519 -0.7207031,0.6914063 V 4.992578 c 0,-0.2876544 0.3218231,-0.6933593 0.7207031,-0.6933593 H 9.8808594 V 3.9007811 Z"
        id="path2-7"
        inkscape:connector-curvature="0"/>
    <path
        style="display:inline;opacity:0.6;fill-opacity:1;fill-rule:evenodd;stroke-width:1.07570577"
        d="m 7.0000054,15.44755 c -2.17e-4,0.05885 -4.71e-4,1.176678 1.3916,0.05531 L 15.591797,9.5400706 C 15.859195,9.31864 15.994912,9.090215 15.999999,8.7999984 15.994856,8.5097819 15.859195,8.2813569 15.591797,8.0599263 L 8.3916054,2.0971431 c -1.392071,-1.12137312 -1.391817,-0.00351 -1.3916,0.055305 v 6.6475494 z"
        id="path4"
        inkscape:connector-curvature="0"/>
    <path
        style="fill:#f8c44e;fill-opacity:1;fill-rule:evenodd;stroke-width:1.07570577"
        d="m 7.0000057,15.046725 c -2.17e-4,0.05885 -4.71e-4,1.176678 1.3916,0.05531 L 15.591797,9.1392464 C 15.859195,8.9178158 15.994912,8.6893908 15.999999,8.3991742 15.994899,8.1089577 15.859195,7.8805327 15.591797,7.6591021 L 8.3916057,1.6963186 c -1.392071,-1.121373 -1.391817,-0.0035 -1.3916,0.0553 v 6.6475497 z"
        id="path4-56"
        inkscape:connector-curvature="0"/>
    <path
        style="opacity:0.2;fill:#ffffff;fill-opacity:1;fill-rule:evenodd;stroke-width:1.07570577"
        d="M 7.3398438,1.2054687 C 7.0000762,1.2643642 6.9998644,1.7155843 7,1.7523437 v 0.4003906 c -2.17e-4,-0.058815 5.071e-4,-1.17606062 1.3925781,-0.054687 l 7.1992189,5.9609375 c 0.203109,0.1681933 0.329229,0.340737 0.380859,0.5410156 C 15.988996,8.536607 15.998777,8.4705561 16,8.4007811 15.9949,8.1105641 15.859195,7.8819768 15.591797,7.6605468 L 8.3925781,1.6976561 C 7.8705515,1.2771413 7.5437043,1.1701313 7.3398438,1.2054687 Z"
        id="path4-5"
        inkscape:connector-curvature="0"/>
</svg>