<?xml version="1.0" encoding="UTF-8" standalone="no"?>
<svg
    xmlns:dc="http://purl.org/dc/elements/1.1/"
    xmlns:cc="http://creativecommons.org/ns#"
    xmlns:rdf="http://www.w3.org/1999/02/22-rdf-syntax-ns#"
    xmlns:svg="http://www.w3.org/2000/svg"
    xmlns="http://www.w3.org/2000/svg"
    xmlns:sodipodi="http://sodipodi.sourceforge.net/DTD/sodipodi-0.dtd"
    xmlns:inkscape="http://www.inkscape.org/namespaces/inkscape"
    width="22"
    height="22"
    version="1"
    id="svg12"
    sodipodi:docname="reset-22.svg"
    inkscape:version="0.92.4 5da689c313, 2019-01-14">
    <metadata id="metadata18">
        <rdf:RDF>
            <cc:Work rdf:about="">
                <dc:format>image/svg+xml</dc:format>
                <dc:type rdf:resource="http://purl.org/dc/dcmitype/StillImage"/>
                <dc:title/>
                <cc:license rdf:resource="https://www.gnu.org/licenses/gpl-3.0.en.html"/>
            </cc:Work>
        </rdf:RDF>
    </metadata>
    <defs id="defs16"/>
    <sodipodi:namedview
        pagecolor="#ffffff"
        bordercolor="#666666"
        borderopacity="1"
        objecttolerance="10"
        gridtolerance="10"
        guidetolerance="10"
        inkscape:pageopacity="0"
        inkscape:pageshadow="2"
        inkscape:window-width="1896"
        inkscape:window-height="2075"
        id="namedview14"
        showgrid="false"
        inkscape:zoom="16"
        inkscape:cx="11.087719"
        inkscape:cy="11.262751"
        inkscape:window-x="1926"
        inkscape:window-y="67"
        inkscape:window-maximized="0"
        inkscape:current-layer="svg12"/>
    <path
        style="opacity:0.2;stroke-width:1.1424557"
        d="M 3.8975694,3.1873575 C 4.6611805,2.4869468 5.5009124,1.9387739 6.3585931,1.5086629 9.7821073,-0.22672019 13.785122,0.20137711 16.907818,2.2220478 c 1.821326,-0.9560717 4.172768,0.1559562 4.376225,2.303432 l 0.424508,4.5018858 -8.5e-5,0.00161 c 0.06367,0.6865345 -0.165267,1.3377334 -0.539956,1.9029224 0.375692,0.59467 0.670736,1.252583 0.680442,1.972008 0.0026,0.188669 -0.01201,0.377391 -0.04454,0.563062 -0.589844,3.343443 -2.857944,5.968057 -5.68863,7.383464 C 12.670257,22.660006 8.6075894,22.249276 5.44338,20.206738 3.6198286,21.171351 1.2569082,20.05559 1.0572861,17.901098 L 0.64302503,13.410612 c -0.0559814,-0.609077 0.0749731,-1.218993 0.37523557,-1.749849 9.15e-4,-0.0014 0.00178,-0.0025 0.00272,-0.0039 0.022766,-0.03947 0.04997,-0.07619 0.081084,-0.109462 0.019685,-0.03106 0.044269,-0.05846 0.065088,-0.08872 C 0.82305234,10.895351 0.54796673,10.277063 0.53371855,9.5948094 0.52938354,9.3998977 0.54415528,9.2052679 0.5775115,9.0134023 0.99400594,6.6400871 2.2780264,4.6553796 3.8949875,3.1896808 Z"
        id="path2"
        inkscape:connector-curvature="0"/>
    <path
        style="fill:#eac046;fill-opacity:1;stroke-width:1.1424557"
        d="m 3.5153428,2.7628521 c 0.7636113,-0.700411 1.603343,-1.248584 2.4610237,-1.6786948 3.4235144,-1.73538296 7.4265285,-1.30728583 10.5492245,0.7133855 1.821329,-0.95607189 4.17277,0.1559561 4.376226,2.303432 l 0.42451,4.5018859 -8.6e-5,0.00162 c 0.06366,0.6865343 -0.165269,1.3377354 -0.539956,1.9029213 0.375691,0.594673 0.670736,1.252583 0.680442,1.972009 0.0026,0.188668 -0.01201,0.377392 -0.04454,0.563062 -0.589842,3.343442 -2.857946,5.968056 -5.68863,7.383464 -3.44553,1.809588 -7.5081991,1.398858 -10.6724085,-0.64368 -1.8235514,0.964611 -4.18647186,-0.15115 -4.38609371,-2.30564 l -0.41425719,-4.4905 c -0.0559814,-0.609079 0.0749735,-1.218994 0.3752356,-1.749852 9.1516e-4,-0.0014 0.001772,-0.0025 0.002709,-0.0039 0.0227662,-0.03947 0.0499706,-0.07619 0.0810838,-0.10946 0.0196833,-0.03105 0.0442693,-0.05846 0.0650884,-0.08873 C 0.4408258,10.470844 0.16574016,9.8525595 0.15149199,9.1703045 0.14715697,8.9753926 0.16192871,8.7807619 0.19528494,8.5888964 0.6117793,6.2155814 1.8957998,4.2308739 3.512761,2.7651751 Z"
        id="path4"
        inkscape:connector-curvature="0"/>
    <path
        style="opacity:0.2;stroke-width:1.1424557"
        d="M 6.2150352,5.7121044 C 9.0284076,3.1789324 13.362638,3.4060794 15.89581,6.2194514 L 17.59383,4.6905469 17.84922,7.5352456 18.104608,10.379943 15.302189,9.8286016 12.499768,9.2772601 14.19779,7.7483558 C 12.509009,5.8727744 9.6195218,5.721343 7.7439397,7.4101247 7.139732,7.9573072 6.6167374,8.571574 6.3735761,9.3496145 6.2364959,9.6820146 6.0610611,10.30903 5.9613617,10.552491 5.4924662,10.974687 4.7700946,10.936828 4.3478994,10.467933 4.0653119,10.15376 3.9792178,9.7092629 4.1240681,9.3123008 l -0.00319,-1.261e-4 C 4.4287258,7.9239399 5.1605158,6.6658819 6.2150352,5.7121044 Z m -1.9516938,6.3692926 2.8024195,0.551339 2.8024192,0.551344 -1.69802,1.528903 c 1.6887809,1.875582 4.5782679,2.027014 6.4538489,0.338232 0.60417,-0.547225 1.127205,-1.161446 1.370365,-1.939489 0.137079,-0.332401 0.312514,-0.959417 0.412216,-1.202877 0.468894,-0.422198 1.191266,-0.384339 1.61346,0.08455 0.282588,0.314172 0.368681,0.758669 0.223831,1.155632 l 0.0029,2.45e-4 c -0.307766,1.388199 -1.039594,2.646213 -2.094114,3.599993 -2.813372,2.53317 -7.1476016,2.306024 -9.6807735,-0.507349 L 4.7740472,17.770835 4.518658,14.926137 Z"
        id="path6"
        inkscape:connector-curvature="0"/>
    <path
        style="fill:#ffffff;stroke-width:1.1424557"
        d="M 5.8328091,5.2875994 C 8.6461817,2.7544272 12.980414,2.9815742 15.513584,5.7949463 L 17.211605,4.2660418 17.466994,7.1107404 17.722383,9.9554382 14.919964,9.4040976 12.117543,8.8527549 13.815565,7.3238505 C 12.126781,5.4482694 9.2372959,5.2968377 7.3617136,6.9856197 6.7575058,7.5328021 6.2345112,8.147069 5.9913498,8.9251093 5.8542699,9.2575097 5.6788351,9.8845253 5.5791355,10.127987 5.11024,10.550181 4.3878684,10.512323 3.9656732,10.043428 3.683086,9.7292548 3.5969916,9.284759 3.741842,8.8877961 L 3.738652,8.8876693 C 4.0464997,7.4994347 4.7782899,6.2413767 5.8328091,5.2875994 Z M 3.8811152,11.65689 6.6835348,12.208233 9.4859543,12.759574 7.787934,14.288479 c 1.6887811,1.875581 4.578268,2.027012 6.453849,0.338231 0.60417,-0.547224 1.127205,-1.161447 1.370364,-1.93949 0.137081,-0.3324 0.312515,-0.959414 0.412214,-1.202877 0.468897,-0.422194 1.191268,-0.384337 1.613464,0.08455 0.282588,0.314173 0.368682,0.758669 0.223831,1.155632 l 0.0029,2.46e-4 c -0.30772,1.388153 -1.039548,2.64617 -2.094068,3.599948 C 12.957116,18.85789 8.622885,18.630744 6.0897132,15.81737 L 4.3918363,17.346282 4.1364471,14.501583 Z"
        id="path8"
        inkscape:connector-curvature="0"/>
    <path
        style="opacity:0.2;fill:#ffffff;stroke-width:1.1424557"
        d="M 3.5145791,2.7629652 C 4.2781904,2.0625543 5.1179876,1.5145649 5.9756684,1.0844542 9.3991825,-0.65092894 13.403041,-0.22373456 16.525738,1.7969366 17.896113,1.0775827 19.563009,1.5314017 20.392868,2.7137533 19.496878,1.8658615 18.094974,1.5983433 16.907964,2.2214423 13.785268,0.20077126 9.7814087,-0.22642391 6.3578943,1.5089592 5.5002136,1.9390698 4.6604166,2.4870594 3.8968053,3.18747 L 3.8950953,3.189 C 2.2781402,4.6546981 0.99329714,6.640944 0.57680371,9.0142586 c -0.0333565,0.1918655 -0.0473281,0.3842649 -0.0429945,0.5791778 0.0142481,0.6822546 0.28972602,1.3011586 0.63381819,1.8644076 -0.020816,0.03027 -0.046635,0.0587 -0.066319,0.08973 -0.031107,0.03327 -0.058812,0.07001 -0.081576,0.10948 -9.411e-4,0.0014 -8.994e-4,0.0032 -0.00182,0.0045 -0.30026163,0.530858 -0.4304261,1.139291 -0.37444334,1.748367 L 1.057453,17.901415 c 0.049429,0.533459 0.2348401,1.001464 0.5084924,1.391746 -0.4794549,-0.45419 -0.82125653,-1.066497 -0.89071613,-1.816183 l -0.41394744,-4.49147 c -0.0559824,-0.60908 0.0741823,-1.21751 0.3744434,-1.748368 9.1527e-4,-0.0014 8.7653e-4,-0.0031 0.001817,-0.0045 0.0227664,-0.03947 0.0504682,-0.07623 0.0815756,-0.109482 0.0196845,-0.03106 0.0455035,-0.05946 0.0663195,-0.08974 C 0.44135519,10.470052 0.16587644,9.8511482 0.15162817,9.1688931 0.14729358,8.9739815 0.16126522,8.7815808 0.19462182,8.5897154 0.61111538,6.2164011 1.8959598,4.2301569 3.5129209,2.764458 Z"
        id="path10"
        inkscape:connector-curvature="0"/>
</svg>