<?xml version="1.0" encoding="UTF-8" standalone="no"?>
<svg
    xmlns:dc="http://purl.org/dc/elements/1.1/"
    xmlns:cc="http://creativecommons.org/ns#"
    xmlns:rdf="http://www.w3.org/1999/02/22-rdf-syntax-ns#"
    xmlns:svg="http://www.w3.org/2000/svg"
    xmlns="http://www.w3.org/2000/svg"
    xmlns:sodipodi="http://sodipodi.sourceforge.net/DTD/sodipodi-0.dtd"
    xmlns:inkscape="http://www.inkscape.org/namespaces/inkscape"
    width="22"
    height="22"
    version="1"
    id="svg12"
    sodipodi:docname="step-22.svg"
    inkscape:version="0.92.4 5da689c313, 2019-01-14">
    <metadata id="metadata18">
        <rdf:RDF>
            <cc:Work rdf:about="">
                <dc:format>image/svg+xml</dc:format>
                <dc:type rdf:resource="http://purl.org/dc/dcmitype/StillImage"/>
                <dc:title/>
                <cc:license rdf:resource="https://www.gnu.org/licenses/gpl-3.0.en.html"/>
            </cc:Work>
        </rdf:RDF>
    </metadata>
    <defs id="defs16"/>
    <sodipodi:namedview
        pagecolor="#ffffff"
        bordercolor="#666666"
        borderopacity="1"
        objecttolerance="10"
        gridtolerance="10"
        guidetolerance="10"
        inkscape:pageopacity="0"
        inkscape:pageshadow="2"
        inkscape:window-width="1896"
        inkscape:window-height="2075"
        id="namedview14"
        showgrid="false"
        inkscape:zoom="16"
        inkscape:cx="10.132378"
        inkscape:cy="-9.0130032"
        inkscape:window-x="1926"
        inkscape:window-y="67"
        inkscape:window-maximized="0"
        inkscape:current-layer="svg12"/>
    <path
        inkscape:connector-curvature="0"
        style="display:inline;opacity:0.6;fill-opacity:1;stroke-width:0.41704652"
        d="M 2.347656,1.0000004 C 2.154944,1.0000004 2,1.1807481 2,1.3085942 V 3.0000004 17 18.691406 C 2,18.819252 2.154944,19 2.347656,19 H 6 8 V 15 H 6 V 5.0000004 H 9.652344 C 9.845056,5.0000004 10,4.8192526 10,4.6914066 V 3.0000004 1.3085942 C 10,1.1807481 9.845056,1.0000004 9.652344,1.0000004 H 6 Z"
        id="path2-6-1"/>
    <path
        inkscape:connector-curvature="0"
        style="display:inline;fill:#008900;fill-opacity:1;stroke-width:0.41704652"
        d="M 2.3476562,0.60000044 C 2.1549442,0.60000044 2,0.78074844 2,0.90859444 V 2.6000004 16.6 18.291406 C 2,18.419252 2.1549442,18.6 2.3476562,18.6 H 6 8 v -4 H 6 V 4.6000004 H 9.652344 C 9.845056,4.6000004 10,4.4192524 10,4.2914064 V 2.6000004 0.90859444 c 0,-0.127846 -0.154944,-0.308594 -0.347656,-0.308594 H 6 Z"
        id="path2-6-7"/>
    <path
        style="display:inline;opacity:0.2;fill:#ffffff;fill-opacity:1;stroke-width:0.41704652"
        d="M 2.3476562,0.60000044 C 2.1549443,0.60000044 2,0.78074814 2,0.90859424 V 1.3089848 C 2,1.1811388 2.1549442,1.000391 2.3476562,1.000391 H 6 9.6523438 C 9.8450558,1.000391 10,1.1811388 10,1.3089848 V 0.90859424 C 10,0.78074804 9.8450556,0.60000044 9.6523438,0.60000044 H 6 Z M 6,14.6 v 0.400391 H 8 V 14.6 Z"
        id="path2-6"
        inkscape:connector-curvature="0"/>
    <path
        style="display:inline;opacity:0.6;fill-opacity:1;fill-rule:evenodd;stroke-width:0.74701744"
        d="m 8.0000061,21.616356 c -1.507e-4,0.04086 -3.271e-4,0.817136 0.9663883,0.03841 l 5.0001306,-4.140823 c 0.185692,-0.153766 0.27994,-0.3124 0.283473,-0.513939 -0.0035,-0.201539 -0.09778,-0.360167 -0.283473,-0.513939 L 8.9663944,12.345244 c -0.9667154,-0.778729 -0.9665391,-0.0025 -0.9663883,0.03841 v 4.616352 z"
        id="path4-3"
        inkscape:connector-curvature="0"/>
    <path
        style="display:inline;fill:#33a133;fill-opacity:1;fill-rule:evenodd;stroke-width:0.74701726"
        d="m 8.000005,21.216353 c -1.515e-4,0.04087 -3.265e-4,0.817138 0.9663872,0.03841 l 5.0001288,-4.140821 c 0.185693,-0.153765 0.279941,-0.3124 0.283474,-0.513939 -0.0036,-0.201539 -0.09778,-0.360167 -0.283474,-0.513938 L 8.9663922,11.945246 c -0.9667137,-0.778729 -0.9665387,-0.0025 -0.9663872,0.03841 v 4.616352 z"
        id="path4-56-9"
        inkscape:connector-curvature="0"/>
    <path
        style="display:inline;opacity:0.2;fill:#ffffff;fill-opacity:1;fill-rule:evenodd;stroke-width:0.74701726"
        d="m 8.234987,11.604362 c -0.2359495,0.04089 -0.2350795,0.355903 -0.2349853,0.381468 v 0.625611 c -1.515e-4,-0.04091 6.932e-4,-0.818403 0.9674069,-0.03967 l 4.9987764,4.141234 c 0.07834,0.06487 0.131168,0.131961 0.177004,0.201416 0.06348,-0.09561 0.104757,-0.197204 0.10681,-0.314332 -0.0035,-0.201539 -0.09812,-0.358923 -0.283814,-0.512695 L 8.9674086,11.946158 C 8.6048904,11.654135 8.3765568,11.579829 8.234987,11.604362 Z"
        id="path4-56"
        inkscape:connector-curvature="0"/>
    <path
        style="opacity:0.6;fill-opacity:1;stroke-width:0.11785113"
        d="M 16.308594,3.0000004 C 16.180748,3.0000004 16,3.1549609 16,3.3476566 V 7.0000004 13 16.652344 C 16,16.845039 16.180748,17 16.308594,17 h 3.382812 C 19.819252,17 20,16.845039 20,16.652344 V 13 7.0000004 3.3476566 C 20,3.1549609 19.819252,3.0000004 19.691406,3.0000004 Z"
        id="path4"
        inkscape:connector-curvature="0"/>
    <path
        inkscape:connector-curvature="0"
        style="fill:#8e8e8e;fill-opacity:1;stroke-width:0.11785113"
        d="M 16.308594,2.6000004 C 16.180748,2.6000004 16,2.7549609 16,2.9476566 V 6.6000004 12.6 16.252344 C 16,16.445039 16.180748,16.6 16.308594,16.6 h 3.382812 C 19.819252,16.6 20,16.445039 20,16.252344 V 12.6 6.6000004 2.9476566 C 20,2.7549609 19.819252,2.6000004 19.691406,2.6000004 Z"
        id="path4-2"/>
    <path
        style="opacity:0.2;fill:#ffffff;fill-opacity:1;stroke-width:0.11785113"
        d="M 16.308594,2.6000004 C 16.180748,2.6000004 16,2.7549609 16,2.9476566 V 3.3480473 C 16,3.1553513 16.180748,3.000391 16.308594,3.000391 h 3.382812 C 19.819252,3.000391 20,3.1553513 20,3.3480473 V 2.9476566 C 20,2.7549609 19.819252,2.6000004 19.691406,2.6000004 Z"
        id="path4-0"
        inkscape:connector-curvature="0"/>
</svg>