<?xml version="1.0" encoding="UTF-8" standalone="no"?>
<svg
    xmlns:dc="http://purl.org/dc/elements/1.1/"
    xmlns:cc="http://creativecommons.org/ns#"
    xmlns:rdf="http://www.w3.org/1999/02/22-rdf-syntax-ns#"
    xmlns:svg="http://www.w3.org/2000/svg"
    xmlns="http://www.w3.org/2000/svg"
    xmlns:sodipodi="http://sodipodi.sourceforge.net/DTD/sodipodi-0.dtd"
    xmlns:inkscape="http://www.inkscape.org/namespaces/inkscape"
    width="16"
    height="16"
    version="1"
    id="svg6"
    sodipodi:docname="up-16.svg"
    inkscape:version="0.92.4 5da689c313, 2019-01-14">
    <metadata id="metadata12">
        <rdf:RDF>
            <cc:Work rdf:about="">
                <dc:format>image/svg+xml</dc:format>
                <dc:type rdf:resource="http://purl.org/dc/dcmitype/StillImage"/>
                <dc:title/>
                <cc:license rdf:resource="https://www.gnu.org/licenses/gpl-3.0.en.html"/>
            </cc:Work>
        </rdf:RDF>
    </metadata>
    <defs id="defs10"/>
    <sodipodi:namedview
        pagecolor="#ffffff"
        bordercolor="#666666"
        borderopacity="1"
        objecttolerance="10"
        gridtolerance="10"
        guidetolerance="10"
        inkscape:pageopacity="0"
        inkscape:pageshadow="2"
        inkscape:window-width="1896"
        inkscape:window-height="2075"
        id="namedview8"
        showgrid="false"
        inkscape:zoom="59"
        inkscape:cx="10.038247"
        inkscape:cy="13.496347"
        inkscape:window-x="1926"
        inkscape:window-y="67"
        inkscape:window-maximized="0"
        inkscape:current-layer="svg6"/>
    <path
        style="opacity:0.2;fill-rule:evenodd;stroke-width:0.31426939"
        d="m 15.386167,12.666995 c 0.06539,2.16e-4 1.30742,4.71e-4 0.06145,-1.389691 L 8.8223084,4.0869989 c -0.246034,-0.26703 -0.49984,-0.402561 -0.822302,-0.407642 -0.322463,0.0051 -0.576269,0.140604 -0.822302,0.407642 L 0.55239573,11.277304 c -1.2459699,1.390162 -0.004,1.389907 0.06145,1.389691 H 8.0000064 Z"
        id="path2"
        inkscape:connector-curvature="0"/>
    <path
        style="fill:#4877b1;fill-opacity:1;fill-rule:evenodd;stroke-width:0.31426939"
        d="m 15.386166,12.493816 c 0.0654,2.16e-4 1.30742,4.7e-4 0.06145,-1.389689 L 8.8223083,3.9138225 c -0.246034,-0.267033 -0.499839,-0.402564 -0.8223019,-0.407644 -0.3224625,0.0051 -0.5762685,0.140604 -0.8223015,0.407644 L 0.55239502,11.104127 c -1.24597003,1.390159 -0.004,1.389905 0.06145,1.389689 H 8.000006 Z"
        id="path6-6"
        inkscape:connector-curvature="0"/>
    <path
        style="opacity:0.2;fill:#ffffff;fill-opacity:1;fill-rule:evenodd;stroke-width:0.31426939"
        d="m 7.9999998,3.5061785 c -0.3224625,0.0051 -0.5762326,0.141163 -0.8222656,0.4082031 L 0.55273422,11.103835 C 0.02114758,11.696939 -0.0466,12.02807 0.04296859,12.222975 0.10673751,12.030697 0.25539864,11.783235 0.55273422,11.451491 L 7.1777342,4.2600847 c 0.246033,-0.26704 0.4998031,-0.4031031 0.8222656,-0.4082031 0.3224629,0.00508 0.5762316,0.1411701 0.8222656,0.4082031 l 6.6250006,7.1914063 c 0.297335,0.331744 0.446,0.579206 0.509765,0.771484 0.08957,-0.194905 0.02182,-0.526036 -0.509765,-1.11914 L 8.8222654,3.9143816 C 8.5762314,3.6473485 8.3224627,3.5112585 7.9999998,3.5061785 Z"
        id="path6-3"
        inkscape:connector-curvature="0"/>
</svg>